<svg width="1202" height="390" viewBox="0 0 1202 390" fill="none" xmlns="http://www.w3.org/2000/svg">
<path d="M-4 4.39998H-5V5.39998H-4V4.39998ZM-4 381.6V380.6H-5V381.6H-4ZM-4 386H-5V387H-4V386ZM97.6 386V387H98.6V386H97.6ZM97.6 381.6H98.6V380.6H97.6V381.6ZM58.4 216.4V215.4H57.4V216.4H58.4ZM266 216.4H267V215.4H266V216.4ZM227.2 381.6V380.6H226.2V381.6H227.2ZM227.2 386H226.2V387H227.2V386ZM328.8 386V387H329.8V386H328.8ZM328.8 381.6H329.8V380.6H328.8V381.6ZM328.8 4.39998V5.39998H329.8V4.39998H328.8ZM328.8 -1.52588e-05H329.8V-1.00002H328.8V-1.52588e-05ZM227.2 -1.52588e-05V-1.00002H226.2V-1.52588e-05H227.2ZM227.2 4.39998H226.2V5.39998H227.2V4.39998ZM266 204.4V205.4H267V204.4H266ZM58.4 204.4H57.4V205.4H58.4V204.4ZM97.6 4.39998V5.39998H98.6V4.39998H97.6ZM97.6 -1.52588e-05H98.6V-1.00002H97.6V-1.52588e-05ZM-4 -1.52588e-05V-1.00002H-5V-1.52588e-05H-4ZM-4 5.39998C1.18381 5.39998 10.6751 7.72998 18.8539 13.8028C26.9855 19.8407 33.8 29.5584 33.8 44.4H35.8C35.8 28.8415 28.6145 18.5592 20.0461 12.1971C11.5249 5.86997 1.61619 3.39998 -4 3.39998V5.39998ZM33.8 44.4V341.6H35.8V44.4H33.8ZM33.8 341.6C33.8 356.442 26.9855 366.159 18.8539 372.197C10.6751 378.27 1.18381 380.6 -4 380.6V382.6C1.61619 382.6 11.5249 380.13 20.0461 373.803C28.6145 367.441 35.8 357.158 35.8 341.6H33.8ZM-5 381.6V386H-3V381.6H-5ZM-4 387H97.6V385H-4V387ZM98.6 386V381.6H96.6V386H98.6ZM97.6 380.6C92.4145 380.6 82.8214 378.269 74.5416 372.194C66.3089 366.153 59.4 356.436 59.4 341.6H57.4C57.4 357.164 64.6911 367.447 73.3584 373.806C81.9786 380.131 91.9855 382.6 97.6 382.6V380.6ZM59.4 341.6V216.4H57.4V341.6H59.4ZM58.4 217.4H266V215.4H58.4V217.4ZM265 216.4V341.6H267V216.4H265ZM265 341.6C265 356.442 258.186 366.159 250.054 372.197C241.875 378.27 232.384 380.6 227.2 380.6V382.6C232.816 382.6 242.725 380.13 251.246 373.803C259.815 367.441 267 357.158 267 341.6H265ZM226.2 381.6V386H228.2V381.6H226.2ZM227.2 387H328.8V385H227.2V387ZM329.8 386V381.6H327.8V386H329.8ZM328.8 380.6C323.616 380.6 314.125 378.27 305.946 372.197C297.815 366.159 291 356.442 291 341.6H289C289 357.158 296.186 367.441 304.754 373.803C313.275 380.13 323.184 382.6 328.8 382.6V380.6ZM291 341.6V44.4H289V341.6H291ZM291 44.4C291 29.5584 297.815 19.8407 305.946 13.8028C314.125 7.72998 323.616 5.39998 328.8 5.39998V3.39998C323.184 3.39998 313.275 5.86997 304.754 12.1971C296.186 18.5592 289 28.8415 289 44.4H291ZM329.8 4.39998V-1.52588e-05H327.8V4.39998H329.8ZM328.8 -1.00002H227.2V0.999985H328.8V-1.00002ZM226.2 -1.52588e-05V4.39998H228.2V-1.52588e-05H226.2ZM227.2 5.39998C232.384 5.39998 241.875 7.72998 250.054 13.8028C258.186 19.8407 265 29.5584 265 44.4H267C267 28.8415 259.815 18.5592 251.246 12.1971C242.725 5.86997 232.816 3.39998 227.2 3.39998V5.39998ZM265 44.4V204.4H267V44.4H265ZM266 203.4H58.4V205.4H266V203.4ZM59.4 204.4V44.4H57.4V204.4H59.4ZM59.4 44.4C59.4 29.5644 66.3089 19.8468 74.5416 13.8062C82.8214 7.7311 92.4145 5.39998 97.6 5.39998V3.39998C91.9855 3.39998 81.9786 5.86885 73.3584 12.1937C64.6911 18.5532 57.4 28.8356 57.4 44.4H59.4ZM98.6 4.39998V-1.52588e-05H96.6V4.39998H98.6ZM97.6 -1.00002H-4V0.999985H97.6V-1.00002ZM-5 -1.52588e-05V4.39998H-3V-1.52588e-05H-5ZM600.138 342.4H601.138V339.781L599.392 341.734L600.138 342.4ZM569.338 382.4V381.4H568.338V382.4H569.338ZM569.338 386H568.338V387H569.338V386ZM654.938 386V387H655.938V386H654.938ZM654.938 382.4H655.938V381.4H654.938V382.4ZM588.138 114L587.575 114.827L587.576 114.827L588.138 114ZM450.938 146L450.116 145.43L449.507 146.308L450.423 146.857L450.938 146ZM472.938 159.2L472.423 160.057L473.229 160.541L473.762 159.767L472.938 159.2ZM582.138 122.4L582.734 121.598L582.716 121.584L582.697 121.571L582.138 122.4ZM600.138 226L599.387 226.661L601.138 228.649V226H600.138ZM457.738 198.8L457.905 199.786L457.919 199.783L457.934 199.781L457.738 198.8ZM599.338 265.2L598.41 265.573L598.425 265.611L598.443 265.647L599.338 265.2ZM600.138 316.8L601.071 317.16L601.138 316.986V316.8H600.138ZM385.737 303.2L384.811 303.577L384.814 303.584L385.737 303.2ZM492.538 387.4C537.186 387.4 577.07 369.704 600.883 343.066L599.392 341.734C576.005 367.896 536.689 385.4 492.538 385.4V387.4ZM599.138 342.4V350.8H601.138V342.4H599.138ZM599.138 350.8C599.138 362.436 593.728 370.054 587.294 374.795C580.813 379.57 573.32 381.4 569.338 381.4V383.4C573.755 383.4 581.662 381.43 588.481 376.405C595.347 371.346 601.138 363.164 601.138 350.8H599.138ZM568.338 382.4V386H570.338V382.4H568.338ZM569.338 387H654.938V385H569.338V387ZM655.938 386V382.4H653.938V386H655.938ZM654.938 381.4C650.749 381.4 643.156 379.567 636.628 374.793C630.147 370.053 624.737 362.436 624.737 350.8H622.737C622.737 363.164 628.529 371.347 635.447 376.407C642.319 381.433 650.326 383.4 654.938 383.4V381.4ZM624.737 350.8V169.6H622.737V350.8H624.737ZM624.737 169.6C624.737 155.406 621.081 144.897 614.696 136.112C608.338 127.362 599.312 120.382 588.699 113.173L587.576 114.827C598.163 122.018 606.937 128.837 613.079 137.288C619.194 145.703 622.737 155.794 622.737 169.6H624.737ZM588.7 113.173C569.843 100.335 550.439 91 529.737 91V93C549.836 93 568.832 102.065 587.575 114.827L588.7 113.173ZM529.737 91C504.077 91 477.412 106.092 450.116 145.43L451.759 146.57C478.863 107.508 504.998 93 529.737 93V91ZM450.423 146.857L472.423 160.057L473.452 158.342L451.452 145.143L450.423 146.857ZM473.762 159.767C500.144 121.391 520.682 107 540.538 107V105C519.593 105 498.531 120.208 472.113 158.633L473.762 159.767ZM540.538 107C553.824 107 566.813 113.253 581.578 123.229L582.697 121.571C567.862 111.547 554.451 105 540.538 105V107ZM581.541 123.202C589.244 128.931 593.585 134.084 596.046 140.938C598.531 147.856 599.138 156.594 599.138 169.6H601.138C601.138 156.606 600.544 147.544 597.929 140.262C595.29 132.916 590.631 127.469 582.734 121.598L581.541 123.202ZM599.138 169.6V226H601.138V169.6H599.138ZM600.888 225.339C577.07 198.291 537.179 181 492.538 181V183C536.696 183 576.005 200.109 599.387 226.661L600.888 225.339ZM492.538 181C419.839 181 359.938 226.824 359.938 284H361.938C361.938 228.376 420.436 183 492.538 183V181ZM359.938 284C359.938 341.172 419.834 387.4 492.538 387.4V385.4C420.441 385.4 361.938 339.628 361.938 284H359.938ZM457.934 199.781C465.867 198.194 474.201 197.4 482.138 197.4V195.4C474.074 195.4 465.608 196.206 457.541 197.819L457.934 199.781ZM482.138 197.4C533.045 197.4 582.201 225.249 598.41 265.573L600.265 264.827C583.674 223.551 533.63 195.4 482.138 195.4V197.4ZM598.443 265.647C598.872 266.505 599.138 267.082 599.138 267.6H601.138C601.138 266.518 600.603 265.495 600.232 264.753L598.443 265.647ZM599.138 267.6V316.8H601.138V267.6H599.138ZM599.204 316.44C584.622 354.275 541.558 370.6 503.338 370.6V372.6C541.917 372.6 586.053 356.125 601.071 317.16L599.204 316.44ZM503.338 370.6C452.432 370.6 403.268 342.751 386.661 302.816L384.814 303.584C401.807 344.449 451.843 372.6 503.338 372.6V370.6ZM386.664 302.823C377.192 279.539 380.449 256.294 393.311 237.617C406.184 218.924 428.727 204.748 457.905 199.786L457.57 197.814C427.948 202.852 404.891 217.276 391.664 236.483C378.426 255.706 375.083 279.661 384.811 303.577L386.664 302.823ZM686.812 382.4V381.4H685.812V382.4H686.812ZM686.812 386H685.812V387H686.812V386ZM772.013 386V387H773.013V386H772.013ZM772.013 382.4H773.013V381.4H772.013V382.4ZM741.213 188L740.586 187.22L740.213 187.521V188H741.213ZM765.612 168.4L766.239 169.18L766.248 169.172L765.612 168.4ZM785.612 152L786.243 152.776L786.252 152.769L786.261 152.761L785.612 152ZM824.412 121.2L823.853 120.371L823.852 120.372L824.412 121.2ZM933.612 158L932.784 158.561L933.311 159.338L934.12 158.862L933.612 158ZM956.013 144.8L956.52 145.662L957.444 145.117L956.837 144.234L956.013 144.8ZM818.812 112.4L818.25 111.573L818.246 111.576L818.812 112.4ZM778.812 144L778.174 143.23L778.164 143.239L778.154 143.247L778.812 144ZM758.812 160.4L758.205 159.606L758.187 159.62L758.169 159.635L758.812 160.4ZM741.213 175.2H740.213V177.347L741.856 175.965L741.213 175.2ZM694.013 91.2V90.2H693.013V91.2H694.013ZM694.013 96.4H693.013V97.4H694.013V96.4ZM685.812 382.4V386H687.812V382.4H685.812ZM686.812 387H772.013V385H686.812V387ZM773.013 386V382.4H771.013V386H773.013ZM772.013 381.4C767.826 381.4 760.335 379.568 753.909 374.797C747.529 370.06 742.213 362.443 742.213 350.8H740.213C740.213 363.157 745.896 371.34 752.716 376.403C759.49 381.432 767.399 383.4 772.013 383.4V381.4ZM742.213 350.8V188H740.213V350.8H742.213ZM741.839 188.78L766.239 169.18L764.986 167.62L740.586 187.22L741.839 188.78ZM766.248 169.172C773.049 163.571 779.846 157.974 786.243 152.776L784.982 151.224C778.579 156.426 771.776 162.029 764.977 167.628L766.248 169.172ZM786.261 152.761C799.869 141.155 812.627 130.392 824.973 122.028L823.852 120.372C811.398 128.808 798.556 139.645 784.964 151.239L786.261 152.761ZM824.972 122.029C839.733 112.055 853.123 105.8 866.013 105.8V103.8C852.502 103.8 838.692 110.345 823.853 120.371L824.972 122.029ZM866.013 105.8C886.268 105.8 906.807 120.193 932.784 158.561L934.441 157.439C908.418 119.007 887.357 103.8 866.013 103.8V105.8ZM934.12 158.862L956.52 145.662L955.505 143.938L933.105 157.138L934.12 158.862ZM956.837 144.234C929.539 104.492 902.873 89.4 876.812 89.4V91.4C901.952 91.4 928.086 105.908 955.188 145.366L956.837 144.234ZM876.812 89.4C856.509 89.4 837.104 98.7365 818.25 111.573L819.375 113.227C838.121 100.464 857.116 91.4 876.812 91.4V89.4ZM818.246 111.576C805.399 120.408 792.156 131.646 778.174 143.23L779.451 144.77C793.469 133.154 806.626 121.992 819.379 113.224L818.246 111.576ZM778.154 143.247C771.769 148.834 764.986 154.42 758.205 159.606L759.42 161.194C766.239 155.98 773.056 150.366 779.471 144.753L778.154 143.247ZM758.169 159.635L740.569 174.435L741.856 175.965L759.456 161.165L758.169 159.635ZM742.213 175.2V119.6H740.213V175.2H742.213ZM742.213 119.6C742.213 112.972 740.938 107.774 738.721 103.715C736.502 99.6483 733.368 96.7813 729.747 94.7752C722.552 90.7898 713.42 90.2 705.612 90.2V92.2C713.405 92.2 722.073 92.8102 728.778 96.5247C732.107 98.3687 734.948 100.977 736.966 104.673C738.987 108.376 740.213 113.228 740.213 119.6H742.213ZM705.612 90.2H694.013V92.2H705.612V90.2ZM693.013 91.2V96.4H695.013V91.2H693.013ZM694.013 97.4C697.845 97.4 703.539 97.4126 708.272 99.4206C710.615 100.414 712.682 101.882 714.169 104.053C715.654 106.22 716.612 109.164 716.612 113.2H718.612C718.612 108.836 717.571 105.48 715.819 102.922C714.068 100.368 711.661 98.6856 709.053 97.5794C703.886 95.3873 697.78 95.4 694.013 95.4V97.4ZM716.612 113.2V350.8H718.612V113.2H716.612ZM716.612 350.8C716.612 362.436 711.203 370.054 704.769 374.795C698.288 379.57 690.796 381.4 686.812 381.4V383.4C691.229 383.4 699.137 381.43 705.956 376.405C712.822 371.346 718.612 363.164 718.612 350.8H716.612ZM988.078 386H987.078V387H988.078V386ZM1073.68 386V387H1074.68V386H1073.68ZM1073.68 382.4H1074.68V381.4H1073.68V382.4ZM1073.68 94.4V95.4H1074.68V94.4H1073.68ZM1073.68 90.8H1074.68V89.8H1073.68V90.8ZM988.078 90.8V89.8H987.078V90.8H988.078ZM988.078 94.4H987.078V95.4H988.078V94.4ZM988.078 382.4V381.4H987.078V382.4H988.078ZM988.078 387H1073.68V385H988.078V387ZM1074.68 386V382.4H1072.68V386H1074.68ZM1073.68 381.4C1069.49 381.4 1061.9 379.567 1055.37 374.793C1048.89 370.053 1043.48 362.436 1043.48 350.8H1041.48C1041.48 363.164 1047.27 371.347 1054.19 376.407C1061.06 381.433 1069.07 383.4 1073.68 383.4V381.4ZM1043.48 350.8V126H1041.48V350.8H1043.48ZM1043.48 126C1043.48 114.364 1048.89 106.747 1055.37 102.007C1061.9 97.2331 1069.49 95.4 1073.68 95.4V93.4C1069.07 93.4 1061.06 95.3669 1054.19 100.393C1047.27 105.453 1041.48 113.636 1041.48 126H1043.48ZM1074.68 94.4V90.8H1072.68V94.4H1074.68ZM1073.68 89.8H988.078V91.8H1073.68V89.8ZM987.078 90.8V94.4H989.078V90.8H987.078ZM988.078 95.4C992.266 95.4 999.858 97.2326 1006.38 102.054C1012.86 106.841 1018.28 114.558 1018.28 126.4H1020.28C1020.28 113.842 1014.49 105.559 1007.57 100.446C1000.7 95.3674 992.69 93.4 988.078 93.4V95.4ZM1018.28 126.4V350.8H1020.28V126.4H1018.28ZM1018.28 350.8C1018.28 362.436 1012.87 370.053 1006.39 374.793C999.86 379.567 992.267 381.4 988.078 381.4V383.4C992.689 383.4 1000.7 381.433 1007.57 376.407C1014.49 371.347 1020.28 363.164 1020.28 350.8H1018.28ZM987.078 382.4V386H989.078V382.4H987.078ZM1005.48 45.6C1005.48 59.7523 1016.73 71 1030.88 71V69C1017.83 69 1007.48 58.6477 1007.48 45.6H1005.48ZM1030.88 71C1044.62 71 1056.28 59.7629 1056.28 45.6H1054.28C1054.28 58.6371 1043.54 69 1030.88 69V71ZM1056.28 45.6C1056.28 31.8264 1044.61 20.6 1030.88 20.6V22.6C1043.55 22.6 1054.28 32.9736 1054.28 45.6H1056.28ZM1030.88 20.6C1016.74 20.6 1005.48 31.8369 1005.48 45.6H1007.48C1007.48 32.963 1017.82 22.6 1030.88 22.6V20.6ZM1139.75 102.4H1140.75V101.4H1139.75V102.4ZM1201.35 392.8V393.8H1202.35V392.8H1201.35ZM1201.35 386H1202.35V385H1201.35V386ZM1162.95 341.6H1161.95V341.61L1161.95 341.619L1162.95 341.6ZM1162.95 102.4V101.4H1161.95V102.4H1162.95ZM1196.95 102.4V103.4H1197.95V102.4H1196.95ZM1196.95 90.8H1197.95V89.8H1196.95V90.8ZM1162.95 90.8H1161.95V91.8H1162.95V90.8ZM1116.15 -1.52588e-05V-1.00002H1115.15V-1.52588e-05H1116.15ZM1116.15 5.19999H1115.15V6.19999H1116.15V5.19999ZM1139.75 90.8V91.8H1140.75V90.8H1139.75ZM1105.75 90.8V89.8H1104.75V90.8H1105.75ZM1105.75 102.4H1104.75V103.4H1105.75V102.4ZM1138.75 102.4V342.4H1140.75V102.4H1138.75ZM1138.75 342.4C1138.75 363.484 1146.48 376.428 1158.31 384.041C1170.05 391.599 1185.69 393.8 1201.35 393.8V391.8C1185.81 391.8 1170.65 389.601 1159.39 382.359C1148.22 375.172 1140.75 362.916 1140.75 342.4H1138.75ZM1202.35 392.8V386H1200.35V392.8H1202.35ZM1201.35 385C1184.62 385 1175.48 379.216 1170.4 371.071C1165.26 362.822 1164.15 351.969 1163.95 341.581L1161.95 341.619C1162.15 352.031 1163.24 363.378 1168.7 372.129C1174.22 380.983 1184.08 387 1201.35 387V385ZM1163.95 341.6V102.4H1161.95V341.6H1163.95ZM1162.95 103.4H1196.95V101.4H1162.95V103.4ZM1197.95 102.4V90.8H1195.95V102.4H1197.95ZM1196.95 89.8H1162.95V91.8H1196.95V89.8ZM1163.95 90.8V28.4H1161.95V90.8H1163.95ZM1163.95 28.4C1163.95 21.7756 1162.7 16.5791 1160.52 12.5201C1158.33 8.45338 1155.24 5.58453 1151.64 3.57672C1144.49 -0.411018 1135.35 -1.00002 1127.35 -1.00002V0.999985C1135.35 0.999985 1144.01 1.61099 1150.66 5.32324C1153.96 7.16544 1156.77 9.77159 1158.76 13.4674C1160.75 17.1708 1161.95 22.0244 1161.95 28.4H1163.95ZM1127.35 -1.00002H1116.15V0.999985H1127.35V-1.00002ZM1115.15 -1.52588e-05V5.19999H1117.15V-1.52588e-05H1115.15ZM1116.15 6.19999C1119.98 6.19999 1125.67 6.21311 1130.4 8.26721C1132.74 9.28354 1134.81 10.7863 1136.3 13.0124C1137.79 15.237 1138.75 18.2592 1138.75 22.4H1140.75C1140.75 17.9408 1139.71 14.513 1137.96 11.9001C1136.21 9.28867 1133.81 7.56644 1131.2 6.43277C1126.03 4.18687 1119.92 4.19999 1116.15 4.19999V6.19999ZM1138.75 22.4V90.8H1140.75V22.4H1138.75ZM1139.75 89.8H1105.75V91.8H1139.75V89.8ZM1104.75 90.8V102.4H1106.75V90.8H1104.75ZM1105.75 103.4H1139.75V101.4H1105.75V103.4Z" fill="#FFFCFC" fill-opacity="0.03"/>
</svg>
